<svg width="56.000000" height="56.000000" viewBox="0 0 56 56" fill="none" xmlns="http://www.w3.org/2000/svg" xmlns:xlink="http://www.w3.org/1999/xlink">
	<desc>
			Created with Pixso.
	</desc>
	<defs>
		<clipPath id="clip5_547">
			<rect id="Frame" width="24.000000" height="24.000000" transform="translate(16.000000 16.000000)" fill="white" fill-opacity="0"/>
		</clipPath>
	</defs>
	<rect id="Frame 4" rx="14.000000" width="55.000000" height="55.000000" transform="translate(0.500000 0.500000)" fill="#12132D" fill-opacity="0.030000"/>
	<rect id="Frame" width="24.000000" height="24.000000" transform="translate(16.000000 16.000000)" fill="#FFFFFF" fill-opacity="0"/>
	<g clip-path="url(#clip5_547)">
		<path id="Vector" d="M34 23.5L34 26.5L34 29.5M34 26.5L37 26.5M34 26.5L31 26.5M27.7615 24.7615C27.1285 25.3945 26.2701 25.75 25.375 25.75C24.4799 25.75 23.6215 25.3945 22.9885 24.7615C22.3556 24.1287 22 23.27 22 22.375C22 21.48 22.3556 20.6213 22.9885 19.9885C23.6215 19.3555 24.4799 19 25.375 19C26.2701 19 27.1285 19.3555 27.7615 19.9885C28.3944 20.6213 28.75 21.48 28.75 22.375C28.75 23.27 28.3944 24.1287 27.7615 24.7615ZM19 35.125C19 33.4343 19.6716 31.8127 20.8672 30.6172C22.0627 29.4216 23.6843 28.75 25.375 28.75C27.0657 28.75 28.6873 29.4216 29.8828 30.6172C31.0784 31.8127 31.75 33.4343 31.75 35.125L31.75 35.2339C29.8255 36.3931 27.6206 37.0039 25.374 37C23.043 37 20.862 36.355 19 35.2339L19 35.2351L19 35.125Z" stroke="#12132D" stroke-opacity="0.600000" stroke-width="1.500000" stroke-linejoin="round"/>
	</g>
	<rect id="Frame 4" rx="14.000000" width="55.000000" height="55.000000" transform="translate(0.500000 0.500000)" stroke="#030712" stroke-opacity="0.100000" stroke-width="1.000000"/>
</svg>
