<svg width="56.000000" height="56.000000" viewBox="0 0 56 56" fill="none" xmlns="http://www.w3.org/2000/svg" xmlns:xlink="http://www.w3.org/1999/xlink">
	<desc>
			Created with Pixso.
	</desc>
	<defs>
		<clipPath id="clip5_543">
			<rect id="Frame" width="24.000000" height="24.000000" transform="translate(16.000000 16.000000)" fill="white" fill-opacity="0"/>
		</clipPath>
	</defs>
	<rect id="Frame 2" rx="14.000000" width="55.000000" height="55.000000" transform="translate(0.500000 0.500000)" fill="#12132D" fill-opacity="0.030000"/>
	<rect id="Frame" width="24.000000" height="24.000000" transform="translate(16.000000 16.000000)" fill="#FFFFFF" fill-opacity="0"/>
	<g clip-path="url(#clip5_543)">
		<path id="Vector" d="M18.25 28L27.204 19.0452C27.644 18.606 28.356 18.606 28.795 19.0452L37.75 28M20.5 25.75L20.5 35.875C20.5 36.4961 21.004 37 21.625 37L25.75 37L25.75 32.125C25.75 31.5042 26.254 31 26.875 31L29.125 31C29.746 31 30.25 31.5042 30.25 32.125L30.25 37L34.375 37C34.996 37 35.5 36.4961 35.5 35.875L35.5 25.75M24.25 37L32.5 37" stroke="#12132D" stroke-opacity="0.600000" stroke-width="1.500000" stroke-linejoin="round"/>
	</g>
	<rect id="Frame 2" rx="14.000000" width="55.000000" height="55.000000" transform="translate(0.500000 0.500000)" stroke="#030712" stroke-opacity="0.100000" stroke-width="1.000000"/>
</svg>
